<svg width="189" height="189" viewBox="0 0 189 189" fill="none" xmlns="http://www.w3.org/2000/svg">
<path d="M185 94.5C185 144.482 144.482 185 94.5 185C44.5182 185 4 144.482 4 94.5C4 44.5182 44.5182 4 94.5 4C144.482 4 185 44.5182 185 94.5Z" fill="white" stroke="#520001" stroke-width="8"/>
<path d="M4 94.5C4 44.5182 44.5182 4 94.5 4C144.482 4 185 44.5182 185 94.5H4Z" fill="#AE002F" stroke="#520001" stroke-width="8"/>
<path fill-rule="evenodd" clip-rule="evenodd" d="M94.5 185C44.5182 185 4 144.482 4 94.5H185C185 144.482 144.482 185 94.5 185Z" fill="white" stroke="#520001" stroke-width="8"/>
<circle cx="95" cy="95" r="31" fill="white" stroke="#520001" stroke-width="8"/>
<circle cx="95" cy="95" r="12.5" fill="#520001" stroke="#520001"/>
</svg>
